<svg width="614" height="614" viewBox="0 0 614 614" fill="none" xmlns="http://www.w3.org/2000/svg">
<g clip-path="url(#clip0_51812_90)">
<mask id="path-1-inside-1_51812_90" fill="white">
<path d="M271.206 1.97115C201.421 11.1351 140.74 40.1541 92.1944 87.736C50.3006 128.739 22.1768 178.2 8.0566 235.769C1.9884 260.558 -0.112121 279.591 0.00457502 307.435C0.121271 357.953 10.0404 399.545 32.7962 445.364C55.5519 490.948 91.4943 531.715 135.372 561.322C193.954 600.798 268.289 619.831 335.389 612.429C412.409 603.852 473.907 574.833 525.72 522.318C595.738 451.238 625.145 359.364 610.208 256.916C601.573 196.764 567.147 130.501 522.453 87.6185C480.209 47.2033 429.446 19.7116 373.899 7.25803C342.041 0.208865 301.081 -2.02337 271.206 1.97115ZM344.842 40.7416C428.98 53.0776 503.314 107.474 541.824 184.897C553.494 208.394 561.896 234.946 566.097 261.027C569.015 279.121 569.015 327.643 566.097 344.443C558.278 388.852 542.408 426.449 515.802 462.516C511.366 468.626 499.814 481.549 490.245 491.183L472.857 508.571L473.557 517.618L474.257 526.547L470.873 513.623C466.905 498.233 463.404 489.656 458.27 482.842C456.17 480.022 454.419 477.085 454.419 476.263C454.536 475.558 457.453 472.738 461.071 470.153C467.605 465.454 476.592 455.937 481.493 448.418C483.243 445.951 485.694 443.954 488.145 443.249C493.979 441.604 500.631 434.673 502.148 428.68C503.782 422.923 503.198 420.222 499.23 414.23L496.313 410L498.88 398.369C501.448 386.856 501.448 386.621 499.463 368.528C498.413 358.542 497.597 348.908 497.597 347.262C497.597 343.151 488.611 325.058 481.493 315.072C469.59 298.154 465.155 294.159 447.884 285.7C427.812 275.714 420.461 274.069 400.155 274.891C382.418 275.596 367.48 279.003 353.827 285.582C340.057 292.162 324.419 307.787 309.366 330.228C304.231 337.747 303.881 338.686 303.881 345.971C303.881 351.61 302.714 357.132 299.68 366.648C294.546 382.743 294.779 386.503 302.131 399.074C305.049 404.008 307.382 408.708 307.382 409.295C307.382 410 305.865 412.232 303.881 414.347C297.697 421.044 297.813 431.383 304.231 438.315C307.849 442.192 316.717 445.834 318.935 444.306C319.518 443.954 319.052 441.017 317.768 437.845C314.267 428.563 315.201 428.211 319.518 437.258C328.037 455.35 339.59 466.981 358.145 476.145C372.148 482.959 384.168 486.014 401.323 486.836C409.025 487.188 414.276 487.893 412.992 488.363C405.99 490.83 373.782 486.249 358.962 480.61L351.26 477.672L349.276 480.374C344.959 486.014 336.439 504.694 334.339 513.035C333.172 517.852 331.538 527.604 330.721 534.653C328.387 556.623 327.454 558.62 325.004 545.696C320.919 524.314 293.496 423.041 290.111 416.932C289.645 415.992 282.293 413.525 273.774 411.411C265.255 409.178 255.919 406.593 253.001 405.418C250.201 404.361 247.517 403.774 247.167 404.126C246.817 404.479 248.8 407.885 251.601 411.645C254.402 415.404 258.37 421.161 260.47 424.334C265.955 433.145 278.675 460.636 282.409 471.563C286.494 483.195 286.144 484.016 273.891 494.473C269.223 498.467 265.372 502.58 265.372 503.637C265.372 504.577 270.74 510.451 277.275 516.561C288.594 527.252 289.061 527.956 288.127 531.246L287.077 534.771L286.61 531.128C286.377 528.309 283.576 525.137 274.124 516.09C267.355 509.863 261.871 503.99 261.871 503.049C261.871 502.227 266.072 497.88 271.09 493.415C283.926 482.372 284.043 481.667 278.792 468.155C269.923 445.482 250.901 410.47 243.899 403.89C241.683 401.776 240.865 399.779 240.865 396.607C240.865 391.79 241.916 390.615 247.867 388.618C253.936 386.621 259.887 382.038 263.971 376.281C267.239 371.7 268.639 370.877 277.625 368.057C283.109 366.295 287.544 364.415 287.544 363.946C287.544 363.358 285.444 360.304 282.876 357.249C277.858 351.139 276.924 346.793 280.308 345.736C281.359 345.384 285.444 344.795 289.295 344.325C293.146 343.973 296.646 343.386 297.113 343.033C297.58 342.799 296.412 338.334 294.546 333.165C292.561 327.995 291.045 323.061 291.045 322.356C291.045 321.533 294.079 320.006 297.813 318.714C306.099 316.011 320.218 308.962 320.218 307.553C320.218 306.966 315.901 304.145 310.766 301.325C300.613 295.921 290.345 287.697 291.861 286.287C292.328 285.817 296.529 284.173 300.963 282.763C312.166 279.003 324.069 273.482 333.406 267.489C337.723 264.787 341.224 262.32 340.991 262.203C340.523 261.85 308.9 248.222 305.865 247.164C304.464 246.577 304.114 245.873 304.697 244.815C305.165 243.875 312.867 236.356 321.736 228.132C330.488 219.79 337.723 212.623 337.723 212.154C337.723 211.214 330.488 209.922 309.133 206.866C301.431 205.692 294.662 204.517 294.196 204.047C293.612 203.578 298.98 193.238 306.099 181.137C317.652 161.282 319.868 157.053 318.702 157.053C318.468 157.053 308.898 160.46 297.463 164.69C280.775 170.799 276.224 171.974 275.057 170.799C272.49 168.214 270.04 148.829 270.04 131.44V114.64L260.587 119.692C249.501 125.685 234.681 137.315 227.795 145.422C225.227 148.594 222.544 151.179 222.078 151.179C221.493 151.179 217.059 145.775 212.041 139.077C203.406 127.563 188.819 111.233 187.185 111.233C186.719 111.233 185.784 116.403 185.084 122.629C182.984 140.252 176.799 161.752 173.764 161.752C172.948 161.752 167.347 159.403 161.395 156.582C151.826 152.118 137.239 147.653 131.871 147.653C130.471 147.653 131.171 149.768 134.556 156.7C139.69 167.157 144.358 183.488 143.774 189.127L143.424 192.886L132.921 193.708C102.347 196.059 87.9934 197.469 87.9934 198.056C87.9934 198.526 93.1281 204.047 99.4297 210.509C111.216 222.493 119.851 235.298 119.268 239.763C119.035 241.408 113.083 246.342 100.83 254.919C90.9108 261.85 82.6254 268.077 82.392 268.664C82.1586 269.253 83.4422 270.074 85.3094 270.544C97.7958 273.246 103.164 275.009 107.598 277.593C113.667 281.235 119.968 286.64 123.119 291.105L125.452 294.395L112.383 307.435C101.413 318.478 99.5463 320.711 100.947 322.004C101.88 322.825 108.882 325.528 116.584 327.877C124.286 330.228 131.055 332.695 131.638 333.282C132.221 333.87 131.288 339.861 129.07 348.085C127.087 355.722 125.802 362.418 126.152 363.005C126.737 364.063 145.991 363.123 149.142 361.948C152.06 360.891 153.226 363.71 154.044 372.993C154.511 378.397 155.211 382.979 155.677 383.213C156.611 383.8 169.68 378.161 169.68 377.222C169.68 376.87 168.164 374.402 166.297 371.7C158.478 360.186 153.109 345.736 148.908 324.471C146.109 310.959 144.824 298.036 146.225 298.036C146.692 298.036 147.509 301.796 147.975 306.377C150.31 332.577 162.329 365.826 173.298 376.87C176.099 379.689 182.168 383.684 188.002 386.385L197.805 390.967L197.454 395.314L197.104 399.661L171.198 408.355L145.291 417.05L142.958 424.216C141.673 428.211 136.306 446.421 131.171 464.867C121.602 498.349 118.684 506.809 120.085 496.823C120.668 491.888 120.435 491.419 114.483 484.839C77.2574 444.424 54.2683 397.076 45.2826 342.094C41.8985 322.004 42.2486 279.003 45.8662 259.265C56.0187 203.812 78.4244 158.58 115.067 119.927C174.816 57.0721 258.487 28.1706 344.842 40.7416ZM186.952 420.456C178.55 437.963 163.613 479.905 164.896 482.137C165.479 483.195 170.498 488.011 176.099 492.945C181.816 497.88 186.602 502.462 186.835 503.285C187.185 504.106 185.434 506.691 182.984 509.158C180.417 511.861 179.483 512.448 180.65 510.686C185.201 503.519 185.551 504.459 173.764 493.533C165.829 486.131 162.679 482.49 162.679 480.492C162.679 474.383 185.784 415.522 188.235 415.522C188.818 415.522 188.235 417.755 186.952 420.456Z"/>
</mask>
<path d="M271.206 1.97115C201.421 11.1351 140.74 40.1541 92.1944 87.736C50.3006 128.739 22.1768 178.2 8.0566 235.769C1.9884 260.558 -0.112121 279.591 0.00457502 307.435C0.121271 357.953 10.0404 399.545 32.7962 445.364C55.5519 490.948 91.4943 531.715 135.372 561.322C193.954 600.798 268.289 619.831 335.389 612.429C412.409 603.852 473.907 574.833 525.72 522.318C595.738 451.238 625.145 359.364 610.208 256.916C601.573 196.764 567.147 130.501 522.453 87.6185C480.209 47.2033 429.446 19.7116 373.899 7.25803C342.041 0.208865 301.081 -2.02337 271.206 1.97115ZM344.842 40.7416C428.98 53.0776 503.314 107.474 541.824 184.897C553.494 208.394 561.896 234.946 566.097 261.027C569.015 279.121 569.015 327.643 566.097 344.443C558.278 388.852 542.408 426.449 515.802 462.516C511.366 468.626 499.814 481.549 490.245 491.183L472.857 508.571L473.557 517.618L474.257 526.547L470.873 513.623C466.905 498.233 463.404 489.656 458.27 482.842C456.17 480.022 454.419 477.085 454.419 476.263C454.536 475.558 457.453 472.738 461.071 470.153C467.605 465.454 476.592 455.937 481.493 448.418C483.243 445.951 485.694 443.954 488.145 443.249C493.979 441.604 500.631 434.673 502.148 428.68C503.782 422.923 503.198 420.222 499.23 414.23L496.313 410L498.88 398.369C501.448 386.856 501.448 386.621 499.463 368.528C498.413 358.542 497.597 348.908 497.597 347.262C497.597 343.151 488.611 325.058 481.493 315.072C469.59 298.154 465.155 294.159 447.884 285.7C427.812 275.714 420.461 274.069 400.155 274.891C382.418 275.596 367.48 279.003 353.827 285.582C340.057 292.162 324.419 307.787 309.366 330.228C304.231 337.747 303.881 338.686 303.881 345.971C303.881 351.61 302.714 357.132 299.68 366.648C294.546 382.743 294.779 386.503 302.131 399.074C305.049 404.008 307.382 408.708 307.382 409.295C307.382 410 305.865 412.232 303.881 414.347C297.697 421.044 297.813 431.383 304.231 438.315C307.849 442.192 316.717 445.834 318.935 444.306C319.518 443.954 319.052 441.017 317.768 437.845C314.267 428.563 315.201 428.211 319.518 437.258C328.037 455.35 339.59 466.981 358.145 476.145C372.148 482.959 384.168 486.014 401.323 486.836C409.025 487.188 414.276 487.893 412.992 488.363C405.99 490.83 373.782 486.249 358.962 480.61L351.26 477.672L349.276 480.374C344.959 486.014 336.439 504.694 334.339 513.035C333.172 517.852 331.538 527.604 330.721 534.653C328.387 556.623 327.454 558.62 325.004 545.696C320.919 524.314 293.496 423.041 290.111 416.932C289.645 415.992 282.293 413.525 273.774 411.411C265.255 409.178 255.919 406.593 253.001 405.418C250.201 404.361 247.517 403.774 247.167 404.126C246.817 404.479 248.8 407.885 251.601 411.645C254.402 415.404 258.37 421.161 260.47 424.334C265.955 433.145 278.675 460.636 282.409 471.563C286.494 483.195 286.144 484.016 273.891 494.473C269.223 498.467 265.372 502.58 265.372 503.637C265.372 504.577 270.74 510.451 277.275 516.561C288.594 527.252 289.061 527.956 288.127 531.246L287.077 534.771L286.61 531.128C286.377 528.309 283.576 525.137 274.124 516.09C267.355 509.863 261.871 503.99 261.871 503.049C261.871 502.227 266.072 497.88 271.09 493.415C283.926 482.372 284.043 481.667 278.792 468.155C269.923 445.482 250.901 410.47 243.899 403.89C241.683 401.776 240.865 399.779 240.865 396.607C240.865 391.79 241.916 390.615 247.867 388.618C253.936 386.621 259.887 382.038 263.971 376.281C267.239 371.7 268.639 370.877 277.625 368.057C283.109 366.295 287.544 364.415 287.544 363.946C287.544 363.358 285.444 360.304 282.876 357.249C277.858 351.139 276.924 346.793 280.308 345.736C281.359 345.384 285.444 344.795 289.295 344.325C293.146 343.973 296.646 343.386 297.113 343.033C297.58 342.799 296.412 338.334 294.546 333.165C292.561 327.995 291.045 323.061 291.045 322.356C291.045 321.533 294.079 320.006 297.813 318.714C306.099 316.011 320.218 308.962 320.218 307.553C320.218 306.966 315.901 304.145 310.766 301.325C300.613 295.921 290.345 287.697 291.861 286.287C292.328 285.817 296.529 284.173 300.963 282.763C312.166 279.003 324.069 273.482 333.406 267.489C337.723 264.787 341.224 262.32 340.991 262.203C340.523 261.85 308.9 248.222 305.865 247.164C304.464 246.577 304.114 245.873 304.697 244.815C305.165 243.875 312.867 236.356 321.736 228.132C330.488 219.79 337.723 212.623 337.723 212.154C337.723 211.214 330.488 209.922 309.133 206.866C301.431 205.692 294.662 204.517 294.196 204.047C293.612 203.578 298.98 193.238 306.099 181.137C317.652 161.282 319.868 157.053 318.702 157.053C318.468 157.053 308.898 160.46 297.463 164.69C280.775 170.799 276.224 171.974 275.057 170.799C272.49 168.214 270.04 148.829 270.04 131.44V114.64L260.587 119.692C249.501 125.685 234.681 137.315 227.795 145.422C225.227 148.594 222.544 151.179 222.078 151.179C221.493 151.179 217.059 145.775 212.041 139.077C203.406 127.563 188.819 111.233 187.185 111.233C186.719 111.233 185.784 116.403 185.084 122.629C182.984 140.252 176.799 161.752 173.764 161.752C172.948 161.752 167.347 159.403 161.395 156.582C151.826 152.118 137.239 147.653 131.871 147.653C130.471 147.653 131.171 149.768 134.556 156.7C139.69 167.157 144.358 183.488 143.774 189.127L143.424 192.886L132.921 193.708C102.347 196.059 87.9934 197.469 87.9934 198.056C87.9934 198.526 93.1281 204.047 99.4297 210.509C111.216 222.493 119.851 235.298 119.268 239.763C119.035 241.408 113.083 246.342 100.83 254.919C90.9108 261.85 82.6254 268.077 82.392 268.664C82.1586 269.253 83.4422 270.074 85.3094 270.544C97.7958 273.246 103.164 275.009 107.598 277.593C113.667 281.235 119.968 286.64 123.119 291.105L125.452 294.395L112.383 307.435C101.413 318.478 99.5463 320.711 100.947 322.004C101.88 322.825 108.882 325.528 116.584 327.877C124.286 330.228 131.055 332.695 131.638 333.282C132.221 333.87 131.288 339.861 129.07 348.085C127.087 355.722 125.802 362.418 126.152 363.005C126.737 364.063 145.991 363.123 149.142 361.948C152.06 360.891 153.226 363.71 154.044 372.993C154.511 378.397 155.211 382.979 155.677 383.213C156.611 383.8 169.68 378.161 169.68 377.222C169.68 376.87 168.164 374.402 166.297 371.7C158.478 360.186 153.109 345.736 148.908 324.471C146.109 310.959 144.824 298.036 146.225 298.036C146.692 298.036 147.509 301.796 147.975 306.377C150.31 332.577 162.329 365.826 173.298 376.87C176.099 379.689 182.168 383.684 188.002 386.385L197.805 390.967L197.454 395.314L197.104 399.661L171.198 408.355L145.291 417.05L142.958 424.216C141.673 428.211 136.306 446.421 131.171 464.867C121.602 498.349 118.684 506.809 120.085 496.823C120.668 491.888 120.435 491.419 114.483 484.839C77.2574 444.424 54.2683 397.076 45.2826 342.094C41.8985 322.004 42.2486 279.003 45.8662 259.265C56.0187 203.812 78.4244 158.58 115.067 119.927C174.816 57.0721 258.487 28.1706 344.842 40.7416ZM186.952 420.456C178.55 437.963 163.613 479.905 164.896 482.137C165.479 483.195 170.498 488.011 176.099 492.945C181.816 497.88 186.602 502.462 186.835 503.285C187.185 504.106 185.434 506.691 182.984 509.158C180.417 511.861 179.483 512.448 180.65 510.686C185.201 503.519 185.551 504.459 173.764 493.533C165.829 486.131 162.679 482.49 162.679 480.492C162.679 474.383 185.784 415.522 188.235 415.522C188.818 415.522 188.235 417.755 186.952 420.456Z" fill="#E0A0D2"/>
<path d="M271.206 1.97115C201.421 11.1351 140.74 40.1541 92.1944 87.736C50.3006 128.739 22.1768 178.2 8.0566 235.769C1.9884 260.558 -0.112121 279.591 0.00457502 307.435C0.121271 357.953 10.0404 399.545 32.7962 445.364C55.5519 490.948 91.4943 531.715 135.372 561.322C193.954 600.798 268.289 619.831 335.389 612.429C412.409 603.852 473.907 574.833 525.72 522.318C595.738 451.238 625.145 359.364 610.208 256.916C601.573 196.764 567.147 130.501 522.453 87.6185C480.209 47.2033 429.446 19.7116 373.899 7.25803C342.041 0.208865 301.081 -2.02337 271.206 1.97115ZM344.842 40.7416C428.98 53.0776 503.314 107.474 541.824 184.897C553.494 208.394 561.896 234.946 566.097 261.027C569.015 279.121 569.015 327.643 566.097 344.443C558.278 388.852 542.408 426.449 515.802 462.516C511.366 468.626 499.814 481.549 490.245 491.183L472.857 508.571L473.557 517.618L474.257 526.547L470.873 513.623C466.905 498.233 463.404 489.656 458.27 482.842C456.17 480.022 454.419 477.085 454.419 476.263C454.536 475.558 457.453 472.738 461.071 470.153C467.605 465.454 476.592 455.937 481.493 448.418C483.243 445.951 485.694 443.954 488.145 443.249C493.979 441.604 500.631 434.673 502.148 428.68C503.782 422.923 503.198 420.222 499.23 414.23L496.313 410L498.88 398.369C501.448 386.856 501.448 386.621 499.463 368.528C498.413 358.542 497.597 348.908 497.597 347.262C497.597 343.151 488.611 325.058 481.493 315.072C469.59 298.154 465.155 294.159 447.884 285.7C427.812 275.714 420.461 274.069 400.155 274.891C382.418 275.596 367.48 279.003 353.827 285.582C340.057 292.162 324.419 307.787 309.366 330.228C304.231 337.747 303.881 338.686 303.881 345.971C303.881 351.61 302.714 357.132 299.68 366.648C294.546 382.743 294.779 386.503 302.131 399.074C305.049 404.008 307.382 408.708 307.382 409.295C307.382 410 305.865 412.232 303.881 414.347C297.697 421.044 297.813 431.383 304.231 438.315C307.849 442.192 316.717 445.834 318.935 444.306C319.518 443.954 319.052 441.017 317.768 437.845C314.267 428.563 315.201 428.211 319.518 437.258C328.037 455.35 339.59 466.981 358.145 476.145C372.148 482.959 384.168 486.014 401.323 486.836C409.025 487.188 414.276 487.893 412.992 488.363C405.99 490.83 373.782 486.249 358.962 480.61L351.26 477.672L349.276 480.374C344.959 486.014 336.439 504.694 334.339 513.035C333.172 517.852 331.538 527.604 330.721 534.653C328.387 556.623 327.454 558.62 325.004 545.696C320.919 524.314 293.496 423.041 290.111 416.932C289.645 415.992 282.293 413.525 273.774 411.411C265.255 409.178 255.919 406.593 253.001 405.418C250.201 404.361 247.517 403.774 247.167 404.126C246.817 404.479 248.8 407.885 251.601 411.645C254.402 415.404 258.37 421.161 260.47 424.334C265.955 433.145 278.675 460.636 282.409 471.563C286.494 483.195 286.144 484.016 273.891 494.473C269.223 498.467 265.372 502.58 265.372 503.637C265.372 504.577 270.74 510.451 277.275 516.561C288.594 527.252 289.061 527.956 288.127 531.246L287.077 534.771L286.61 531.128C286.377 528.309 283.576 525.137 274.124 516.09C267.355 509.863 261.871 503.99 261.871 503.049C261.871 502.227 266.072 497.88 271.09 493.415C283.926 482.372 284.043 481.667 278.792 468.155C269.923 445.482 250.901 410.47 243.899 403.89C241.683 401.776 240.865 399.779 240.865 396.607C240.865 391.79 241.916 390.615 247.867 388.618C253.936 386.621 259.887 382.038 263.971 376.281C267.239 371.7 268.639 370.877 277.625 368.057C283.109 366.295 287.544 364.415 287.544 363.946C287.544 363.358 285.444 360.304 282.876 357.249C277.858 351.139 276.924 346.793 280.308 345.736C281.359 345.384 285.444 344.795 289.295 344.325C293.146 343.973 296.646 343.386 297.113 343.033C297.58 342.799 296.412 338.334 294.546 333.165C292.561 327.995 291.045 323.061 291.045 322.356C291.045 321.533 294.079 320.006 297.813 318.714C306.099 316.011 320.218 308.962 320.218 307.553C320.218 306.966 315.901 304.145 310.766 301.325C300.613 295.921 290.345 287.697 291.861 286.287C292.328 285.817 296.529 284.173 300.963 282.763C312.166 279.003 324.069 273.482 333.406 267.489C337.723 264.787 341.224 262.32 340.991 262.203C340.523 261.85 308.9 248.222 305.865 247.164C304.464 246.577 304.114 245.873 304.697 244.815C305.165 243.875 312.867 236.356 321.736 228.132C330.488 219.79 337.723 212.623 337.723 212.154C337.723 211.214 330.488 209.922 309.133 206.866C301.431 205.692 294.662 204.517 294.196 204.047C293.612 203.578 298.98 193.238 306.099 181.137C317.652 161.282 319.868 157.053 318.702 157.053C318.468 157.053 308.898 160.46 297.463 164.69C280.775 170.799 276.224 171.974 275.057 170.799C272.49 168.214 270.04 148.829 270.04 131.44V114.64L260.587 119.692C249.501 125.685 234.681 137.315 227.795 145.422C225.227 148.594 222.544 151.179 222.078 151.179C221.493 151.179 217.059 145.775 212.041 139.077C203.406 127.563 188.819 111.233 187.185 111.233C186.719 111.233 185.784 116.403 185.084 122.629C182.984 140.252 176.799 161.752 173.764 161.752C172.948 161.752 167.347 159.403 161.395 156.582C151.826 152.118 137.239 147.653 131.871 147.653C130.471 147.653 131.171 149.768 134.556 156.7C139.69 167.157 144.358 183.488 143.774 189.127L143.424 192.886L132.921 193.708C102.347 196.059 87.9934 197.469 87.9934 198.056C87.9934 198.526 93.1281 204.047 99.4297 210.509C111.216 222.493 119.851 235.298 119.268 239.763C119.035 241.408 113.083 246.342 100.83 254.919C90.9108 261.85 82.6254 268.077 82.392 268.664C82.1586 269.253 83.4422 270.074 85.3094 270.544C97.7958 273.246 103.164 275.009 107.598 277.593C113.667 281.235 119.968 286.64 123.119 291.105L125.452 294.395L112.383 307.435C101.413 318.478 99.5463 320.711 100.947 322.004C101.88 322.825 108.882 325.528 116.584 327.877C124.286 330.228 131.055 332.695 131.638 333.282C132.221 333.87 131.288 339.861 129.07 348.085C127.087 355.722 125.802 362.418 126.152 363.005C126.737 364.063 145.991 363.123 149.142 361.948C152.06 360.891 153.226 363.71 154.044 372.993C154.511 378.397 155.211 382.979 155.677 383.213C156.611 383.8 169.68 378.161 169.68 377.222C169.68 376.87 168.164 374.402 166.297 371.7C158.478 360.186 153.109 345.736 148.908 324.471C146.109 310.959 144.824 298.036 146.225 298.036C146.692 298.036 147.509 301.796 147.975 306.377C150.31 332.577 162.329 365.826 173.298 376.87C176.099 379.689 182.168 383.684 188.002 386.385L197.805 390.967L197.454 395.314L197.104 399.661L171.198 408.355L145.291 417.05L142.958 424.216C141.673 428.211 136.306 446.421 131.171 464.867C121.602 498.349 118.684 506.809 120.085 496.823C120.668 491.888 120.435 491.419 114.483 484.839C77.2574 444.424 54.2683 397.076 45.2826 342.094C41.8985 322.004 42.2486 279.003 45.8662 259.265C56.0187 203.812 78.4244 158.58 115.067 119.927C174.816 57.0721 258.487 28.1706 344.842 40.7416ZM186.952 420.456C178.55 437.963 163.613 479.905 164.896 482.137C165.479 483.195 170.498 488.011 176.099 492.945C181.816 497.88 186.602 502.462 186.835 503.285C187.185 504.106 185.434 506.691 182.984 509.158C180.417 511.861 179.483 512.448 180.65 510.686C185.201 503.519 185.551 504.459 173.764 493.533C165.829 486.131 162.679 482.49 162.679 480.492C162.679 474.383 185.784 415.522 188.235 415.522C188.818 415.522 188.235 417.755 186.952 420.456Z" fill="url(#paint0_linear_51812_90)"/>
<path d="M271.206 1.97115C201.421 11.1351 140.74 40.1541 92.1944 87.736C50.3006 128.739 22.1768 178.2 8.0566 235.769C1.9884 260.558 -0.112121 279.591 0.00457502 307.435C0.121271 357.953 10.0404 399.545 32.7962 445.364C55.5519 490.948 91.4943 531.715 135.372 561.322C193.954 600.798 268.289 619.831 335.389 612.429C412.409 603.852 473.907 574.833 525.72 522.318C595.738 451.238 625.145 359.364 610.208 256.916C601.573 196.764 567.147 130.501 522.453 87.6185C480.209 47.2033 429.446 19.7116 373.899 7.25803C342.041 0.208865 301.081 -2.02337 271.206 1.97115ZM344.842 40.7416C428.98 53.0776 503.314 107.474 541.824 184.897C553.494 208.394 561.896 234.946 566.097 261.027C569.015 279.121 569.015 327.643 566.097 344.443C558.278 388.852 542.408 426.449 515.802 462.516C511.366 468.626 499.814 481.549 490.245 491.183L472.857 508.571L473.557 517.618L474.257 526.547L470.873 513.623C466.905 498.233 463.404 489.656 458.27 482.842C456.17 480.022 454.419 477.085 454.419 476.263C454.536 475.558 457.453 472.738 461.071 470.153C467.605 465.454 476.592 455.937 481.493 448.418C483.243 445.951 485.694 443.954 488.145 443.249C493.979 441.604 500.631 434.673 502.148 428.68C503.782 422.923 503.198 420.222 499.23 414.23L496.313 410L498.88 398.369C501.448 386.856 501.448 386.621 499.463 368.528C498.413 358.542 497.597 348.908 497.597 347.262C497.597 343.151 488.611 325.058 481.493 315.072C469.59 298.154 465.155 294.159 447.884 285.7C427.812 275.714 420.461 274.069 400.155 274.891C382.418 275.596 367.48 279.003 353.827 285.582C340.057 292.162 324.419 307.787 309.366 330.228C304.231 337.747 303.881 338.686 303.881 345.971C303.881 351.61 302.714 357.132 299.68 366.648C294.546 382.743 294.779 386.503 302.131 399.074C305.049 404.008 307.382 408.708 307.382 409.295C307.382 410 305.865 412.232 303.881 414.347C297.697 421.044 297.813 431.383 304.231 438.315C307.849 442.192 316.717 445.834 318.935 444.306C319.518 443.954 319.052 441.017 317.768 437.845C314.267 428.563 315.201 428.211 319.518 437.258C328.037 455.35 339.59 466.981 358.145 476.145C372.148 482.959 384.168 486.014 401.323 486.836C409.025 487.188 414.276 487.893 412.992 488.363C405.99 490.83 373.782 486.249 358.962 480.61L351.26 477.672L349.276 480.374C344.959 486.014 336.439 504.694 334.339 513.035C333.172 517.852 331.538 527.604 330.721 534.653C328.387 556.623 327.454 558.62 325.004 545.696C320.919 524.314 293.496 423.041 290.111 416.932C289.645 415.992 282.293 413.525 273.774 411.411C265.255 409.178 255.919 406.593 253.001 405.418C250.201 404.361 247.517 403.774 247.167 404.126C246.817 404.479 248.8 407.885 251.601 411.645C254.402 415.404 258.37 421.161 260.47 424.334C265.955 433.145 278.675 460.636 282.409 471.563C286.494 483.195 286.144 484.016 273.891 494.473C269.223 498.467 265.372 502.58 265.372 503.637C265.372 504.577 270.74 510.451 277.275 516.561C288.594 527.252 289.061 527.956 288.127 531.246L287.077 534.771L286.61 531.128C286.377 528.309 283.576 525.137 274.124 516.09C267.355 509.863 261.871 503.99 261.871 503.049C261.871 502.227 266.072 497.88 271.09 493.415C283.926 482.372 284.043 481.667 278.792 468.155C269.923 445.482 250.901 410.47 243.899 403.89C241.683 401.776 240.865 399.779 240.865 396.607C240.865 391.79 241.916 390.615 247.867 388.618C253.936 386.621 259.887 382.038 263.971 376.281C267.239 371.7 268.639 370.877 277.625 368.057C283.109 366.295 287.544 364.415 287.544 363.946C287.544 363.358 285.444 360.304 282.876 357.249C277.858 351.139 276.924 346.793 280.308 345.736C281.359 345.384 285.444 344.795 289.295 344.325C293.146 343.973 296.646 343.386 297.113 343.033C297.58 342.799 296.412 338.334 294.546 333.165C292.561 327.995 291.045 323.061 291.045 322.356C291.045 321.533 294.079 320.006 297.813 318.714C306.099 316.011 320.218 308.962 320.218 307.553C320.218 306.966 315.901 304.145 310.766 301.325C300.613 295.921 290.345 287.697 291.861 286.287C292.328 285.817 296.529 284.173 300.963 282.763C312.166 279.003 324.069 273.482 333.406 267.489C337.723 264.787 341.224 262.32 340.991 262.203C340.523 261.85 308.9 248.222 305.865 247.164C304.464 246.577 304.114 245.873 304.697 244.815C305.165 243.875 312.867 236.356 321.736 228.132C330.488 219.79 337.723 212.623 337.723 212.154C337.723 211.214 330.488 209.922 309.133 206.866C301.431 205.692 294.662 204.517 294.196 204.047C293.612 203.578 298.98 193.238 306.099 181.137C317.652 161.282 319.868 157.053 318.702 157.053C318.468 157.053 308.898 160.46 297.463 164.69C280.775 170.799 276.224 171.974 275.057 170.799C272.49 168.214 270.04 148.829 270.04 131.44V114.64L260.587 119.692C249.501 125.685 234.681 137.315 227.795 145.422C225.227 148.594 222.544 151.179 222.078 151.179C221.493 151.179 217.059 145.775 212.041 139.077C203.406 127.563 188.819 111.233 187.185 111.233C186.719 111.233 185.784 116.403 185.084 122.629C182.984 140.252 176.799 161.752 173.764 161.752C172.948 161.752 167.347 159.403 161.395 156.582C151.826 152.118 137.239 147.653 131.871 147.653C130.471 147.653 131.171 149.768 134.556 156.7C139.69 167.157 144.358 183.488 143.774 189.127L143.424 192.886L132.921 193.708C102.347 196.059 87.9934 197.469 87.9934 198.056C87.9934 198.526 93.1281 204.047 99.4297 210.509C111.216 222.493 119.851 235.298 119.268 239.763C119.035 241.408 113.083 246.342 100.83 254.919C90.9108 261.85 82.6254 268.077 82.392 268.664C82.1586 269.253 83.4422 270.074 85.3094 270.544C97.7958 273.246 103.164 275.009 107.598 277.593C113.667 281.235 119.968 286.64 123.119 291.105L125.452 294.395L112.383 307.435C101.413 318.478 99.5463 320.711 100.947 322.004C101.88 322.825 108.882 325.528 116.584 327.877C124.286 330.228 131.055 332.695 131.638 333.282C132.221 333.87 131.288 339.861 129.07 348.085C127.087 355.722 125.802 362.418 126.152 363.005C126.737 364.063 145.991 363.123 149.142 361.948C152.06 360.891 153.226 363.71 154.044 372.993C154.511 378.397 155.211 382.979 155.677 383.213C156.611 383.8 169.68 378.161 169.68 377.222C169.68 376.87 168.164 374.402 166.297 371.7C158.478 360.186 153.109 345.736 148.908 324.471C146.109 310.959 144.824 298.036 146.225 298.036C146.692 298.036 147.509 301.796 147.975 306.377C150.31 332.577 162.329 365.826 173.298 376.87C176.099 379.689 182.168 383.684 188.002 386.385L197.805 390.967L197.454 395.314L197.104 399.661L171.198 408.355L145.291 417.05L142.958 424.216C141.673 428.211 136.306 446.421 131.171 464.867C121.602 498.349 118.684 506.809 120.085 496.823C120.668 491.888 120.435 491.419 114.483 484.839C77.2574 444.424 54.2683 397.076 45.2826 342.094C41.8985 322.004 42.2486 279.003 45.8662 259.265C56.0187 203.812 78.4244 158.58 115.067 119.927C174.816 57.0721 258.487 28.1706 344.842 40.7416ZM186.952 420.456C178.55 437.963 163.613 479.905 164.896 482.137C165.479 483.195 170.498 488.011 176.099 492.945C181.816 497.88 186.602 502.462 186.835 503.285C187.185 504.106 185.434 506.691 182.984 509.158C180.417 511.861 179.483 512.448 180.65 510.686C185.201 503.519 185.551 504.459 173.764 493.533C165.829 486.131 162.679 482.49 162.679 480.492C162.679 474.383 185.784 415.522 188.235 415.522C188.818 415.522 188.235 417.755 186.952 420.456Z" stroke="black" stroke-width="2" mask="url(#path-1-inside-1_51812_90)"/>
</g>
<defs>
<linearGradient id="paint0_linear_51812_90" x1="-150.49" y1="64.2091" x2="307" y2="614" gradientUnits="userSpaceOnUse">
<stop stop-color="#7500E2"/>
<stop offset="1" stop-color="#9B51E0" stop-opacity="0"/>
</linearGradient>
<clipPath id="clip0_51812_90">
<rect width="614" height="614" fill="white"/>
</clipPath>
</defs>
</svg>
