<svg width="888" height="888" viewBox="0 0 888 888" fill="none" xmlns="http://www.w3.org/2000/svg">
<mask id="path-1-inside-1_51809_51" fill="white">
<path d="M392.233 2.85079C291.307 16.1041 203.546 58.0731 133.337 126.889C72.7474 186.189 32.0733 257.722 11.6519 340.981C2.87573 376.833 -0.162156 404.36 0.00661664 444.629C0.175389 517.692 14.521 577.843 47.4316 644.109C80.3421 710.036 132.324 768.996 195.783 811.815C280.507 868.906 388.013 896.432 485.058 885.729C596.448 873.323 685.39 831.354 760.325 755.404C861.589 652.605 904.119 519.732 882.516 371.566C870.027 284.57 820.238 188.737 755.599 126.719C694.505 68.268 621.088 28.508 540.753 10.4969C494.678 0.302072 435.44 -2.92631 392.233 2.85079ZM498.729 58.9227C620.414 76.7637 727.92 155.434 783.616 267.409C800.493 301.391 812.644 339.791 818.72 377.512C822.94 403.679 822.94 473.855 818.72 498.152C807.412 562.379 784.459 616.753 745.98 668.916C739.565 677.752 722.859 696.442 709.018 710.375L683.872 735.523L684.884 748.607L685.896 761.52L681.002 742.83C675.264 720.571 670.2 708.168 662.775 698.313C659.738 694.233 657.205 689.987 657.205 688.797C657.374 687.777 661.594 683.7 666.826 679.961C676.276 673.164 689.273 659.4 696.361 648.526C698.891 644.958 702.436 642.07 705.981 641.051C714.419 638.671 724.04 628.647 726.233 619.98C728.597 611.654 727.751 607.747 722.013 599.082L717.795 592.964L721.507 576.143C725.221 559.491 725.221 559.152 722.351 532.985C720.832 518.542 719.651 504.61 719.651 502.23C719.651 496.284 706.656 470.116 696.361 455.674C679.146 431.206 672.733 425.428 647.753 413.195C618.725 398.753 608.093 396.373 578.726 397.563C553.073 398.582 531.47 403.509 511.724 413.025C491.808 422.541 469.193 445.138 447.422 477.593C439.995 488.467 439.489 489.826 439.489 500.361C439.489 508.517 437.802 516.503 433.413 530.266C425.988 553.544 426.325 558.982 436.958 577.163C441.178 584.299 444.552 591.095 444.552 591.944C444.552 592.964 442.359 596.193 439.489 599.251C430.545 608.937 430.714 623.889 439.995 633.915C445.227 639.522 458.053 644.789 461.261 642.58C462.105 642.07 461.43 637.822 459.574 633.235C454.51 619.812 455.86 619.302 462.104 632.386C474.425 658.551 491.133 675.374 517.969 688.626C538.22 698.481 555.604 702.9 580.414 704.088C591.554 704.598 599.148 705.617 597.292 706.297C587.165 709.865 540.584 703.239 519.15 695.084L508.011 690.836L505.142 694.743C498.898 702.9 486.576 729.916 483.539 741.979C481.852 748.946 479.488 763.05 478.307 773.244C474.931 805.018 473.581 807.906 470.038 789.215C464.131 758.292 424.469 611.825 419.575 602.989C418.9 601.631 408.267 598.063 395.947 595.004C383.627 591.776 370.124 588.037 365.904 586.338C361.855 584.808 357.972 583.959 357.466 584.469C356.96 584.979 359.828 589.906 363.879 595.344C367.93 600.78 373.669 609.106 376.706 613.695C384.639 626.438 403.035 666.197 408.436 682C414.343 698.822 413.836 700.01 396.115 715.133C389.365 720.91 383.795 726.858 383.795 728.387C383.795 729.746 391.558 738.242 401.01 747.078C417.379 762.54 418.056 763.559 416.705 768.317L415.186 773.414L414.511 768.147C414.174 764.069 410.123 759.482 396.453 746.398C386.664 737.392 378.732 728.897 378.732 727.537C378.732 726.349 384.808 720.061 392.064 713.604C410.629 697.632 410.798 696.613 403.203 677.072C390.377 644.28 362.867 593.644 352.74 584.128C349.535 581.07 348.352 578.182 348.352 573.595C348.352 566.628 349.872 564.928 358.478 562.04C367.255 559.152 375.862 552.524 381.769 544.198C386.495 537.572 388.52 536.382 401.516 532.305C409.448 529.756 415.861 527.037 415.861 526.358C415.861 525.508 412.824 521.091 409.11 516.672C401.854 507.837 400.502 501.551 405.397 500.022C406.917 499.512 412.824 498.662 418.394 497.982C423.963 497.472 429.025 496.623 429.701 496.113C430.376 495.774 428.687 489.316 425.988 481.841C423.118 474.364 420.924 467.228 420.924 466.209C420.924 465.019 425.313 462.81 430.714 460.941C442.696 457.032 463.117 446.838 463.117 444.799C463.117 443.95 456.872 439.871 449.447 435.793C434.763 427.977 419.912 416.083 422.105 414.044C422.78 413.364 428.856 410.986 435.269 408.947C451.472 403.509 468.686 395.524 482.189 386.857C488.434 382.95 493.497 379.382 493.16 379.212C492.483 378.702 446.747 358.992 442.359 357.463C440.333 356.614 439.826 355.594 440.67 354.065C441.347 352.705 452.486 341.83 465.312 329.936C477.97 317.872 488.434 307.507 488.434 306.829C488.434 305.468 477.97 303.6 447.085 299.181C435.946 297.484 426.156 295.784 425.482 295.104C424.638 294.425 432.401 279.471 442.696 261.971C459.405 233.255 462.611 227.138 460.923 227.138C460.586 227.138 446.746 232.066 430.208 238.183C406.072 247.018 399.49 248.718 397.803 247.018C394.089 243.28 390.546 215.244 390.546 190.096V165.799L376.874 173.105C360.842 181.772 339.408 198.592 329.45 210.317C325.736 214.905 321.856 218.643 321.181 218.643C320.335 218.643 313.922 210.827 306.665 201.141C294.177 184.489 273.079 160.871 270.717 160.871C270.043 160.871 268.691 168.348 267.679 177.353C264.642 202.84 255.696 233.935 251.308 233.935C250.126 233.935 242.026 230.537 233.418 226.458C219.579 220.002 198.482 213.544 190.719 213.544C188.695 213.544 189.707 216.603 194.602 226.628C202.027 241.751 208.778 265.37 207.934 273.525L207.428 278.962L192.238 280.152C148.02 283.551 127.261 285.59 127.261 286.439C127.261 287.119 134.687 295.104 143.801 304.449C160.846 321.781 173.336 340.301 172.492 346.759C172.154 349.137 163.547 356.273 145.826 368.678C131.48 378.702 119.497 387.708 119.16 388.557C118.822 389.408 120.679 390.596 123.379 391.276C141.438 395.183 149.201 397.733 155.615 401.47C164.391 406.738 173.504 414.554 178.062 421.011L181.436 425.769L162.534 444.629C146.67 460.6 143.969 463.829 145.994 465.699C147.345 466.887 157.471 470.796 168.61 474.194C179.749 477.593 189.538 481.161 190.382 482.01C191.225 482.861 189.876 491.526 186.668 503.42C183.8 514.465 181.942 524.149 182.448 524.998C183.294 526.527 211.14 525.169 215.697 523.469C219.917 521.94 221.604 526.017 222.787 539.442C223.462 547.258 224.474 553.885 225.149 554.224C226.499 555.073 245.401 546.917 245.401 545.559C245.401 545.049 243.207 541.481 240.508 537.572C229.2 520.92 221.435 500.022 215.36 469.267C211.31 449.726 209.453 431.035 211.479 431.035C212.154 431.035 213.335 436.473 214.01 443.1C217.386 480.991 234.769 529.078 250.633 545.049C254.684 549.127 263.461 554.904 271.898 558.811L286.076 565.438L285.568 571.725L285.062 578.012L247.596 590.586L210.127 603.16L206.753 613.525C204.895 619.302 197.132 645.638 189.707 672.315C175.867 720.74 171.648 732.975 173.673 718.532C174.517 711.395 174.179 710.716 165.572 701.2C111.734 642.75 78.4857 574.273 65.4902 494.755C60.5959 465.699 61.1022 403.509 66.3341 374.963C81.0172 294.765 113.422 229.347 166.416 173.445C252.828 82.5408 373.837 40.7418 498.729 58.9227ZM270.38 608.086C258.229 633.405 236.625 694.064 238.481 697.293C239.325 698.822 246.583 705.788 254.684 712.924C262.953 720.061 269.874 726.688 270.211 727.878C270.717 729.066 268.185 732.804 264.642 736.372C260.928 740.281 259.578 741.13 261.266 738.582C267.847 728.217 268.354 729.575 251.308 713.774C239.831 703.069 235.276 697.803 235.276 694.913C235.276 686.078 268.691 600.95 272.236 600.95C273.079 600.95 272.236 604.179 270.38 608.086Z"/>
</mask>
<path d="M392.233 2.85079C291.307 16.1041 203.546 58.0731 133.337 126.889C72.7474 186.189 32.0733 257.722 11.6519 340.981C2.87573 376.833 -0.162156 404.36 0.00661664 444.629C0.175389 517.692 14.521 577.843 47.4316 644.109C80.3421 710.036 132.324 768.996 195.783 811.815C280.507 868.906 388.013 896.432 485.058 885.729C596.448 873.323 685.39 831.354 760.325 755.404C861.589 652.605 904.119 519.732 882.516 371.566C870.027 284.57 820.238 188.737 755.599 126.719C694.505 68.268 621.088 28.508 540.753 10.4969C494.678 0.302072 435.44 -2.92631 392.233 2.85079ZM498.729 58.9227C620.414 76.7637 727.92 155.434 783.616 267.409C800.493 301.391 812.644 339.791 818.72 377.512C822.94 403.679 822.94 473.855 818.72 498.152C807.412 562.379 784.459 616.753 745.98 668.916C739.565 677.752 722.859 696.442 709.018 710.375L683.872 735.523L684.884 748.607L685.896 761.52L681.002 742.83C675.264 720.571 670.2 708.168 662.775 698.313C659.738 694.233 657.205 689.987 657.205 688.797C657.374 687.777 661.594 683.7 666.826 679.961C676.276 673.164 689.273 659.4 696.361 648.526C698.891 644.958 702.436 642.07 705.981 641.051C714.419 638.671 724.04 628.647 726.233 619.98C728.597 611.654 727.751 607.747 722.013 599.082L717.795 592.964L721.507 576.143C725.221 559.491 725.221 559.152 722.351 532.985C720.832 518.542 719.651 504.61 719.651 502.23C719.651 496.284 706.656 470.116 696.361 455.674C679.146 431.206 672.733 425.428 647.753 413.195C618.725 398.753 608.093 396.373 578.726 397.563C553.073 398.582 531.47 403.509 511.724 413.025C491.808 422.541 469.193 445.138 447.422 477.593C439.995 488.467 439.489 489.826 439.489 500.361C439.489 508.517 437.802 516.503 433.413 530.266C425.988 553.544 426.325 558.982 436.958 577.163C441.178 584.299 444.552 591.095 444.552 591.944C444.552 592.964 442.359 596.193 439.489 599.251C430.545 608.937 430.714 623.889 439.995 633.915C445.227 639.522 458.053 644.789 461.261 642.58C462.105 642.07 461.43 637.822 459.574 633.235C454.51 619.812 455.86 619.302 462.104 632.386C474.425 658.551 491.133 675.374 517.969 688.626C538.22 698.481 555.604 702.9 580.414 704.088C591.554 704.598 599.148 705.617 597.292 706.297C587.165 709.865 540.584 703.239 519.15 695.084L508.011 690.836L505.142 694.743C498.898 702.9 486.576 729.916 483.539 741.979C481.852 748.946 479.488 763.05 478.307 773.244C474.931 805.018 473.581 807.906 470.038 789.215C464.131 758.292 424.469 611.825 419.575 602.989C418.9 601.631 408.267 598.063 395.947 595.004C383.627 591.776 370.124 588.037 365.904 586.338C361.855 584.808 357.972 583.959 357.466 584.469C356.96 584.979 359.828 589.906 363.879 595.344C367.93 600.78 373.669 609.106 376.706 613.695C384.639 626.438 403.035 666.197 408.436 682C414.343 698.822 413.836 700.01 396.115 715.133C389.365 720.91 383.795 726.858 383.795 728.387C383.795 729.746 391.558 738.242 401.01 747.078C417.379 762.54 418.056 763.559 416.705 768.317L415.186 773.414L414.511 768.147C414.174 764.069 410.123 759.482 396.453 746.398C386.664 737.392 378.732 728.897 378.732 727.537C378.732 726.349 384.808 720.061 392.064 713.604C410.629 697.632 410.798 696.613 403.203 677.072C390.377 644.28 362.867 593.644 352.74 584.128C349.535 581.07 348.352 578.182 348.352 573.595C348.352 566.628 349.872 564.928 358.478 562.04C367.255 559.152 375.862 552.524 381.769 544.198C386.495 537.572 388.52 536.382 401.516 532.305C409.448 529.756 415.861 527.037 415.861 526.358C415.861 525.508 412.824 521.091 409.11 516.672C401.854 507.837 400.502 501.551 405.397 500.022C406.917 499.512 412.824 498.662 418.394 497.982C423.963 497.472 429.025 496.623 429.701 496.113C430.376 495.774 428.687 489.316 425.988 481.841C423.118 474.364 420.924 467.228 420.924 466.209C420.924 465.019 425.313 462.81 430.714 460.941C442.696 457.032 463.117 446.838 463.117 444.799C463.117 443.95 456.872 439.871 449.447 435.793C434.763 427.977 419.912 416.083 422.105 414.044C422.78 413.364 428.856 410.986 435.269 408.947C451.472 403.509 468.686 395.524 482.189 386.857C488.434 382.95 493.497 379.382 493.16 379.212C492.483 378.702 446.747 358.992 442.359 357.463C440.333 356.614 439.826 355.594 440.67 354.065C441.347 352.705 452.486 341.83 465.312 329.936C477.97 317.872 488.434 307.507 488.434 306.829C488.434 305.468 477.97 303.6 447.085 299.181C435.946 297.484 426.156 295.784 425.482 295.104C424.638 294.425 432.401 279.471 442.696 261.971C459.405 233.255 462.611 227.138 460.923 227.138C460.586 227.138 446.746 232.066 430.208 238.183C406.072 247.018 399.49 248.718 397.803 247.018C394.089 243.28 390.546 215.244 390.546 190.096V165.799L376.874 173.105C360.842 181.772 339.408 198.592 329.45 210.317C325.736 214.905 321.856 218.643 321.181 218.643C320.335 218.643 313.922 210.827 306.665 201.141C294.177 184.489 273.079 160.871 270.717 160.871C270.043 160.871 268.691 168.348 267.679 177.353C264.642 202.84 255.696 233.935 251.308 233.935C250.126 233.935 242.026 230.537 233.418 226.458C219.579 220.002 198.482 213.544 190.719 213.544C188.695 213.544 189.707 216.603 194.602 226.628C202.027 241.751 208.778 265.37 207.934 273.525L207.428 278.962L192.238 280.152C148.02 283.551 127.261 285.59 127.261 286.439C127.261 287.119 134.687 295.104 143.801 304.449C160.846 321.781 173.336 340.301 172.492 346.759C172.154 349.137 163.547 356.273 145.826 368.678C131.48 378.702 119.497 387.708 119.16 388.557C118.822 389.408 120.679 390.596 123.379 391.276C141.438 395.183 149.201 397.733 155.615 401.47C164.391 406.738 173.504 414.554 178.062 421.011L181.436 425.769L162.534 444.629C146.67 460.6 143.969 463.829 145.994 465.699C147.345 466.887 157.471 470.796 168.61 474.194C179.749 477.593 189.538 481.161 190.382 482.01C191.225 482.861 189.876 491.526 186.668 503.42C183.8 514.465 181.942 524.149 182.448 524.998C183.294 526.527 211.14 525.169 215.697 523.469C219.917 521.94 221.604 526.017 222.787 539.442C223.462 547.258 224.474 553.885 225.149 554.224C226.499 555.073 245.401 546.917 245.401 545.559C245.401 545.049 243.207 541.481 240.508 537.572C229.2 520.92 221.435 500.022 215.36 469.267C211.31 449.726 209.453 431.035 211.479 431.035C212.154 431.035 213.335 436.473 214.01 443.1C217.386 480.991 234.769 529.078 250.633 545.049C254.684 549.127 263.461 554.904 271.898 558.811L286.076 565.438L285.568 571.725L285.062 578.012L247.596 590.586L210.127 603.16L206.753 613.525C204.895 619.302 197.132 645.638 189.707 672.315C175.867 720.74 171.648 732.975 173.673 718.532C174.517 711.395 174.179 710.716 165.572 701.2C111.734 642.75 78.4857 574.273 65.4902 494.755C60.5959 465.699 61.1022 403.509 66.3341 374.963C81.0172 294.765 113.422 229.347 166.416 173.445C252.828 82.5408 373.837 40.7418 498.729 58.9227ZM270.38 608.086C258.229 633.405 236.625 694.064 238.481 697.293C239.325 698.822 246.583 705.788 254.684 712.924C262.953 720.061 269.874 726.688 270.211 727.878C270.717 729.066 268.185 732.804 264.642 736.372C260.928 740.281 259.578 741.13 261.266 738.582C267.847 728.217 268.354 729.575 251.308 713.774C239.831 703.069 235.276 697.803 235.276 694.913C235.276 686.078 268.691 600.95 272.236 600.95C273.079 600.95 272.236 604.179 270.38 608.086Z" fill="#f3fd" fill-opacity="0.83" stroke="black" stroke-width="2" mask="url(#path-1-inside-1_51809_51)"/>
</svg>
